<?xml version="1.0" encoding="utf-8"?>
<!-- Generator: Adobe Illustrator 19.0.0, SVG Export Plug-In . SVG Version: 6.00 Build 0)  -->
<svg version="1.1" id="Layer_1" xmlns="http://www.w3.org/2000/svg" xmlns:xlink="http://www.w3.org/1999/xlink" x="0px" y="0px"
	 viewBox="0 0 96 96" style="enable-background:new 0 0 96 96;" xml:space="preserve">
<style type="text/css">
	.st0{fill:#333333;}
</style>
<g id="XMLID_1_">
	<path id="XMLID_3_" class="st0" d="M39,15.5H28.1c-2,0-3.6,1.6-3.6,3.6v57.8c0,2,1.6,3.6,3.6,3.6H39c2,0,3.6-1.6,3.6-3.6V19.1
		C42.6,17.1,41,15.5,39,15.5z"/>
	<path id="XMLID_4_" class="st0" d="M67.9,15.5H57c-2,0-3.6,1.6-3.6,3.6v57.8c0,2,1.6,3.6,3.6,3.6h10.8c2,0,3.6-1.6,3.6-3.6V19.1
		C71.5,17.1,69.8,15.5,67.9,15.5z"/>
</g>
</svg>
