<?xml version="1.0" encoding="utf-8"?>
<!-- Generator: Adobe Illustrator 19.0.0, SVG Export Plug-In . SVG Version: 6.00 Build 0)  -->
<svg version="1.1" id="Layer_1" xmlns="http://www.w3.org/2000/svg" xmlns:xlink="http://www.w3.org/1999/xlink" x="0px" y="0px"
	 viewBox="0 0 96 96" style="enable-background:new 0 0 96 96;" xml:space="preserve">
<style type="text/css">
	.st0{fill:#333333;}
</style>
<g id="XMLID_2_">
	<path id="XMLID_4_" class="st0" d="M29.8,77.4c-0.5,0.5-0.9,0.7-1.2,0.5c-0.3-0.2-0.5-0.6-0.5-1.2V19.3c0-0.7,0.2-1.1,0.5-1.2
		c0.3-0.2,0.8,0,1.2,0.5l27.7,27.7c0.2,0.2,0.4,0.5,0.5,0.7V20.6c0-0.7,0.2-1.3,0.7-1.8c0.5-0.5,1.1-0.7,1.8-0.7h5
		c0.7,0,1.3,0.2,1.8,0.7s0.7,1.1,0.7,1.8v54.9c0,0.7-0.2,1.3-0.7,1.8s-1.1,0.7-1.8,0.7h-5c-0.7,0-1.3-0.2-1.8-0.7
		c-0.5-0.5-0.7-1.1-0.7-1.8V49c-0.1,0.3-0.3,0.5-0.5,0.7L29.8,77.4z"/>
</g>
</svg>
